<svg width="512" height="512" viewBox="0 0 512 512" fill="none" xmlns="http://www.w3.org/2000/svg">
  <rect width="512" height="512" rx="128" fill="#07101F"/>
  <path d="M134 166C134 149.431 147.431 136 164 136H348C364.569 136 378 149.431 378 166V346C378 362.569 364.569 376 348 376H164C147.431 376 134 362.569 134 346V166Z" fill="url(#paint0_linear_1_2)" stroke="rgba(255,255,255,0.14)" stroke-width="8"/>
  <rect x="170" y="176" width="172" height="24" rx="12" fill="#B8F3FF" fill-opacity="0.85"/>
  <rect x="170" y="220" width="130" height="18" rx="9" fill="#4DD4C6" fill-opacity="0.9"/>
  <rect x="170" y="252" width="190" height="18" rx="9" fill="#F8FAFC" fill-opacity="0.7"/>
  <rect x="170" y="284" width="112" height="18" rx="9" fill="#F59E0B" fill-opacity="0.9"/>
  <circle cx="344" cy="284" r="34" fill="#22C55E" fill-opacity="0.18" stroke="#22C55E" stroke-opacity="0.6" stroke-width="8"/>
  <path d="M330 284L340 294L360 270" stroke="#86EFAC" stroke-width="10" stroke-linecap="round" stroke-linejoin="round"/>
  <defs>
    <linearGradient id="paint0_linear_1_2" x1="144" y1="136" x2="370" y2="380" gradientUnits="userSpaceOnUse">
      <stop stop-color="#0F172A"/>
      <stop offset="1" stop-color="#0B3A52"/>
    </linearGradient>
  </defs>
</svg>
